<svg width="267" height="146" viewBox="0 0 267 146" fill="none" xmlns="http://www.w3.org/2000/svg">
<path d="M267 62.5106V91.6418H242.195V62.5106H267Z" fill="#F0BFA3"/>
<path d="M242.195 62.5106V91.6418H267V62.5106H242.195Z" fill="#F0BFA3"/>
<path d="M0 62.5109V91.642H24.8046V62.5109H0Z" fill="#F0BFA3"/>
<path d="M73.3346 63.7741C115.018 70.0465 114.591 73.9807 71.9445 76.5811C114.591 73.9807 116.505 84.5552 78.1779 111.004C116.505 84.5552 120.425 86.8329 90.937 118.418C120.425 86.8329 125.121 89.9065 106.22 128.425C125.121 89.9065 128.487 90.539 117.183 130.483C128.487 90.539 136.676 91.7397 143.834 134.392C136.676 91.7397 143.793 90.1595 167.005 129.248C143.793 90.1595 147.098 86.4197 177.767 117.073C147.098 86.4197 150.58 81.6205 189.099 101.451C150.58 81.6205 151.601 79.3304 192.427 93.9955C151.601 79.3304 152.409 70.0465 195.056 63.7741C152.409 70.0465 150.913 64.7052 190.186 46.3858C150.913 64.7052 149.956 61.858 187.069 37.1175C149.956 61.858 142.117 55.9341 161.551 17.8328C142.117 55.9341 136.676 54.2857 143.834 12.4675C136.676 54.2857 132.753 54.3955 131.066 12.8253C132.753 54.3955 128.713 53.916 117.916 11.2635C128.713 53.916 119.588 59.1408 88.2099 28.2722C119.588 59.1408 116.848 64.4048 79.2922 45.4084C116.848 64.4048 115.018 70.0465 73.3346 63.7741Z" fill="#707070"/>
<path d="M185.342 57.2183C199.844 62.4702 220.724 63.0314 222.723 57.5099C222.723 57.5099 207.083 42.4749 192.581 37.223C178.08 31.971 172.206 34.9065 170.207 40.4281C168.207 45.9496 170.841 51.9662 185.342 57.2183Z" fill="#722790"/>
<path d="M170.207 40.428C169.443 42.5344 169.358 44.7125 170.346 46.8929C172.469 41.6063 178.398 38.9092 192.581 44.0461C202.408 47.6049 217.071 55.8069 222.723 60.7283V57.5099C222.723 57.5099 207.083 42.4749 192.581 37.223C178.08 31.971 172.206 34.9065 170.207 40.428Z" fill="#712A8D"/>
<path d="M176.705 48.6494C157.134 48.6494 155.442 56.1242 155.442 77.0037C155.442 97.8828 157.134 105.358 176.705 105.358C187.604 105.358 212.38 102.156 222.776 96.4972V57.5101C212.38 51.8505 187.604 48.6494 176.705 48.6494Z" fill="#8239A1"/>
<path d="M247.582 57.5099V96.4971H222.776V57.5099H247.582Z" fill="#712A8D"/>
<path d="M240.493 69.9151V96.4972H229.86V69.9151H240.493Z" fill="#722790"/>
<path d="M222.776 73.815V80.1922L210.335 81.6863C207.528 82.0233 205.057 79.8313 205.057 77.0037C205.057 74.176 207.528 71.9839 210.335 72.321L222.776 73.815Z" fill="#32325A"/>
<path d="M166.96 105.358C177.235 105.358 197.968 97.8828 197.968 77.0036C197.968 56.1241 177.235 48.6493 166.96 48.6493C156.684 48.6493 148.354 56.1241 148.354 77.0036C148.354 97.8828 156.684 105.358 166.96 105.358Z" fill="#712A8D"/>
<path d="M208.247 82.6743C209.031 82.6743 209.665 83.3091 209.665 84.092C209.665 84.875 209.031 85.5098 208.247 85.5098C207.465 85.5098 206.83 84.875 206.83 84.092C206.83 83.3091 207.465 82.6743 208.247 82.6743Z" fill="#ACACAC"/>
<path d="M208.247 68.4972C209.031 68.4972 209.665 69.1319 209.665 69.9149C209.665 70.6978 209.031 71.3327 208.247 71.3327C207.465 71.3327 206.83 70.6978 206.83 69.9149C206.83 69.1319 207.465 68.4972 208.247 68.4972Z" fill="#ACACAC"/>
<path d="M213.918 68.4971C214.7 68.4971 215.335 69.1319 215.335 69.9148C215.335 70.6978 214.7 71.3325 213.918 71.3325C213.135 71.3325 212.5 70.6978 212.5 69.9148C212.5 69.1319 213.135 68.4971 213.918 68.4971Z" fill="#ACACAC"/>
<path d="M213.918 82.6743C214.7 82.6743 215.335 83.3091 215.335 84.092C215.335 84.8749 214.7 85.5098 213.918 85.5098C213.135 85.5098 212.5 84.8749 212.5 84.092C212.5 83.3091 213.135 82.6743 213.918 82.6743Z" fill="#ACACAC"/>
<path d="M219.587 68.4976C220.369 68.4976 221.004 69.1323 221.004 69.9153C221.004 70.6982 220.369 71.3329 219.587 71.3329C218.803 71.3329 218.169 70.6982 218.169 69.9153C218.169 69.1323 218.803 68.4976 219.587 68.4976Z" fill="#ACACAC"/>
<path d="M219.587 82.6747C220.369 82.6747 221.004 83.3094 221.004 84.0924C221.004 84.8754 220.369 85.5101 219.587 85.5101C218.803 85.5101 218.169 84.8754 218.169 84.0924C218.169 83.3094 218.803 82.6747 219.587 82.6747Z" fill="#ACACAC"/>
<path d="M214.626 69.9154C214.626 70.0031 214.609 70.0921 214.575 70.1785L208.905 84.3556C208.759 84.7191 208.347 84.8959 207.983 84.7505C207.62 84.6052 207.442 84.1927 207.588 83.829L213.258 69.6519C213.404 69.2884 213.816 69.1117 214.18 69.2571C214.458 69.368 214.626 69.6341 214.626 69.9154Z" fill="white"/>
<path d="M220.297 69.915C220.297 70.0027 220.282 70.0917 220.247 70.178L214.576 84.3553C214.431 84.7188 214.017 84.8956 213.655 84.7503C213.292 84.6048 213.113 84.1924 213.259 83.8287L218.93 69.6514C219.075 69.2879 219.488 69.1113 219.851 69.2566C220.129 69.3676 220.297 69.6337 220.297 69.915Z" fill="white"/>
<path d="M214.626 84.0921C214.626 84.3734 214.458 84.6397 214.18 84.7505C213.816 84.8959 213.404 84.7191 213.258 84.3556L207.588 70.1785C207.442 69.8145 207.62 69.4025 207.983 69.2571C208.347 69.1117 208.759 69.2884 208.905 69.6519L214.575 83.829C214.609 83.9154 214.626 84.0045 214.626 84.0921Z" fill="white"/>
<path d="M220.297 84.0917C220.297 84.373 220.129 84.6393 219.851 84.7503C219.488 84.8956 219.075 84.7188 218.93 84.3553L213.259 70.178C213.113 69.8142 213.292 69.402 213.655 69.2566C214.017 69.1113 214.431 69.2879 214.576 69.6514L220.247 83.8287C220.282 83.915 220.297 84.0043 220.297 84.0917Z" fill="white"/>
<path d="M81.6577 57.2184C67.1556 62.4704 46.2765 63.0315 44.2773 57.51C44.2773 57.51 59.9162 42.4754 74.4182 37.2231C88.9202 31.9708 94.7947 34.9072 96.7937 40.4285C98.7927 45.9498 96.1596 51.9665 81.6577 57.2184Z" fill="#DEB602"/>
<path d="M96.7937 40.4285C97.5567 42.5347 97.6412 44.7127 96.6541 46.8927C94.5302 41.6064 88.602 38.9098 74.4182 44.0466C64.5914 47.6055 49.9286 55.807 44.2773 60.7285V57.51C44.2773 57.51 59.9162 42.4755 74.4182 37.2231C88.9202 31.9708 94.7947 34.9072 96.7937 40.4285Z" fill="#FCCD04"/>
<path d="M19.4181 57.51V96.4972H44.2227V57.51H19.4181Z" fill="#DEB602"/>
<path d="M26.5057 69.915V96.4972H37.1392V69.915H26.5057Z" fill="#A28402"/>
<path d="M90.2942 48.6493C92.4905 48.6493 94.4599 48.7444 96.2288 48.9409C97.6013 48.7444 98.8867 48.6493 100.04 48.6493C110.315 48.6493 118.645 56.1241 118.645 77.0036C118.645 97.8828 110.315 105.358 100.04 105.358C98.8867 105.358 92.4904 105.358 90.2942 105.358C79.3956 105.358 54.6191 102.156 44.2227 96.4972V57.51C54.6191 51.8505 79.3956 48.6493 90.2942 48.6493Z" fill="#FCCD04"/>
</svg>
