<svg width="281" height="248" viewBox="0 0 281 248" fill="none" xmlns="http://www.w3.org/2000/svg">
<path d="M269.899 214.582C269.899 218.502 242.807 221.678 209.386 221.678C175.967 221.678 148.875 218.502 148.875 214.582C148.875 210.664 175.967 207.487 209.386 207.487C242.807 207.487 269.899 210.664 269.899 214.582Z" fill="#FCCD04"/>
<path d="M133.935 207.062C133.935 210.655 106.438 213.569 72.5187 213.569C38.5991 213.569 11.1021 210.655 11.1021 207.062C11.1021 203.468 38.5991 200.554 72.5187 200.554C106.438 200.554 133.935 203.468 133.935 207.062Z" fill="#FCCD04"/>
<path d="M212.258 174.606C212.258 180.677 179.091 185.598 138.176 185.598C97.2629 185.598 64.0956 180.677 64.0956 174.606C64.0956 168.535 97.2629 163.612 138.176 163.612C179.091 163.612 212.258 168.535 212.258 174.606Z" fill="#FCCD04"/>
<path d="M175.804 36.4183H162.889V32.8573H175.804V36.4183Z" fill="#BDBCBC"/>
<path d="M164.786 37.1371C164.786 38.1912 163.932 39.0462 162.877 39.0462H160.743C159.689 39.0462 158.834 38.1912 158.834 37.1371V32.1392C158.834 31.0851 159.689 30.2287 160.743 30.2287H162.877C163.932 30.2287 164.786 31.0851 164.786 32.1392V37.1371Z" fill="#313D45"/>
<path d="M178.78 37.1371C178.78 38.1912 177.924 39.0462 176.87 39.0462H174.737C173.682 39.0462 172.827 38.1912 172.827 37.1371V32.1392C172.827 31.0851 173.682 30.2287 174.737 30.2287H176.87C177.924 30.2287 178.78 31.0851 178.78 32.1392V37.1371Z" fill="#313D45"/>
<path d="M164.787 37.1351H158.835V32.1373H164.787V37.1351Z" fill="#3D4D57"/>
<path d="M178.781 37.1351H172.828V32.1373H178.781V37.1351Z" fill="#3D4D57"/>
<path d="M141.093 43.1327C141.093 48.5189 142.742 63.6524 140.236 65.323C136.619 67.7344 132.762 64.2251 132.164 59.1061C131.528 53.6697 132.615 53.4594 132.662 49.9171C132.762 42.4952 133.757 32.3868 133.757 32.3868C133.757 32.3868 141.093 37.7492 141.093 43.1327Z" fill="#320E12"/>
<path d="M141.483 43.6824C141.483 49.0681 139.595 63.6537 142.103 65.3243C145.721 67.7345 149.577 64.2255 150.176 59.1066C150.811 53.6707 149.724 53.4594 149.676 49.9173C149.577 42.4964 148.646 32.7234 148.646 32.7234C148.646 32.7234 141.483 38.2993 141.483 43.6824Z" fill="#320E12"/>
<path d="M168.382 38.1722C168.398 39.1271 167.889 55.9018 167.889 55.9018L151.671 50.642L152.317 61.7922C152.317 61.7922 172.828 64.7322 174.405 59.6255C176.767 51.9809 171.627 38.6315 170.348 37.5715C169.067 36.5102 168.364 37.216 168.382 38.1722Z" fill="#F9A984"/>
<path d="M166.052 32.26C167.016 30.9058 170.353 30.7459 171.168 32.1374C171.985 33.5288 170.845 38.2843 170.845 38.2843L168.413 38.3389C168.413 38.3389 165.089 33.6101 166.052 32.26Z" fill="#F9A984"/>
<path d="M167.821 55.753C168.38 55.9807 169.003 56.2333 169.616 56.3515" stroke="#E88F68" stroke-width="4.13884" stroke-miterlimit="10" stroke-linecap="round"/>
<path d="M124.632 174.126C124.003 174.952 118.846 174.5 117.543 174.317C116.146 174.122 119.223 164.598 119.223 164.598C119.223 164.598 123.452 163.25 123.396 164.598C123.338 165.944 125.26 173.299 124.632 174.126Z" fill="#F19978"/>
<path d="M132.539 77.9916C132.539 77.9916 128.767 81.3164 125.369 93.4535C120.969 109.166 119.223 164.598 119.223 164.598H123.396C123.396 164.598 140.859 110.762 142.081 94.5996C142.753 85.7201 143.02 77.1641 143.02 77.1641C143.02 77.1641 139.069 74.3992 132.539 77.9916Z" fill="#F19978"/>
<path d="M157.205 174.126C157.835 174.952 162.991 174.5 164.293 174.317C165.69 174.122 162.614 164.598 162.614 164.598C162.614 164.598 158.383 163.25 158.441 164.598C158.498 165.944 156.575 173.299 157.205 174.126Z" fill="#F19978"/>
<path d="M149.3 77.9916C149.3 77.9916 153.069 81.3164 156.467 93.4535C160.867 109.166 162.614 164.598 162.614 164.598H158.441C158.441 164.598 140.978 110.762 139.755 94.5996C139.084 85.7201 138.816 77.1641 138.816 77.1641C138.816 77.1641 142.768 74.3992 149.3 77.9916Z" fill="#F19978"/>
<path d="M139.543 108.626C140.883 102.883 141.829 97.9368 142.081 94.5996C142.753 85.7201 143.02 77.1641 143.02 77.1641C143.02 77.1641 139.069 74.3992 132.539 77.9916C132.539 77.9916 128.767 81.3164 125.369 93.4535C124.531 96.4461 123.789 100.88 123.137 106.096C129.212 111.42 139.543 108.626 139.543 108.626Z" fill="#8239A1"/>
<path d="M142.294 108.626C142.294 108.626 153.056 110.023 158.678 105.928C158.031 100.785 157.297 96.4138 156.467 93.4535C153.069 81.3164 149.3 77.9916 149.3 77.9916C142.768 74.3992 138.816 77.1641 138.816 77.1641C138.816 77.1641 139.084 85.7201 139.755 94.5996C140.007 97.9368 140.953 102.883 142.294 108.626Z" fill="#8239A1"/>
<path d="M153.338 61.0065C153.338 56.3366 152.166 51.0047 151.243 49.8586C150.32 48.7114 143.845 47.5915 143.845 47.5915H138.621C138.621 47.5915 131.79 48.7599 130.779 50.1573C129.769 51.5559 128.848 56.7037 128.76 62.0057C128.616 70.5082 132.539 77.9916 132.539 77.9916H149.448C149.448 77.9916 153.338 68.19 153.338 61.0065Z" fill="#D24BAD"/>
<path d="M143.845 47.745C143.845 47.745 143.845 49.0528 141.202 48.9583C138.661 48.8662 138.621 47.745 138.621 47.745L138.872 45.1668H143.544L143.845 47.745Z" fill="#F9A984"/>
<path d="M146.326 34.9358C146.311 31.8737 144.812 28.435 144.812 28.435L140.924 27.9246L137.034 28.435C137.034 28.435 135.537 31.8737 135.521 34.9358C135.514 36.2238 135.154 37.9533 135.378 39.6126C135.69 41.9186 136.949 45.9959 140.924 45.9959C145.113 45.9959 146.071 41.9199 146.426 39.6126C146.692 37.8804 146.331 36.217 146.326 34.9358Z" fill="#F9A984"/>
<path d="M148.646 32.7234C148.65 30.0295 145.757 26.6991 141.482 26.289C137.208 25.8802 133.756 30.0676 133.756 32.3882C133.756 33.9008 134.931 37.2693 134.931 37.2693L136.012 37.3687C136.012 37.3687 136.247 31.3703 137.993 31.602C140.534 35.8289 145.844 32.2083 145.654 34.8683C145.579 35.9107 145.553 36.7392 145.774 37.4696C146.097 38.542 147.099 38.2095 147.099 38.2095C147.099 38.2095 148.643 34.5467 148.646 32.7234Z" fill="#320E12"/>
<path d="M145.479 37.6693C144.342 37.8403 146.139 39.2992 146.996 39.1544C147.607 39.0526 148.273 38.2265 148.273 37.0716C148.273 35.8019 147.462 35.2851 146.85 35.3869C145.784 35.5657 146.259 37.5506 145.479 37.6693Z" fill="#F9A984"/>
<path d="M136.367 37.6693C137.505 37.8403 135.708 39.2992 134.852 39.1544C134.238 39.0526 133.573 38.2265 133.573 37.0716C133.573 35.8019 134.385 35.2851 134.997 35.3869C136.061 35.5657 135.589 37.5506 136.367 37.6693Z" fill="#F9A984"/>
<path d="M142.437 45.6976C141.07 46.3858 139.41 45.6715 139.41 45.6715" stroke="#E88F68" stroke-width="4.13884" stroke-miterlimit="10" stroke-linecap="round"/>
<path d="M143.543 36.6874C143.543 37.0619 143.679 37.3675 143.844 37.3675C144.009 37.3675 144.144 37.0619 144.144 36.6874C144.144 36.3115 144.009 36.0072 143.844 36.0072C143.679 36.0072 143.543 36.3115 143.543 36.6874Z" fill="#2E222D"/>
<path d="M145.049 35.2358C144.357 34.6802 143.068 34.675 143.068 34.5726C143.068 34.4688 142.964 34.0696 143.059 34.0013C143.153 33.9343 144.696 34.3953 145.145 34.9639C145.265 35.1149 145.239 35.3855 145.049 35.2358Z" fill="#320E12"/>
<path d="M141.067 35.9119C141.067 35.9119 141.183 37.8076 140.913 38.5805" stroke="#E88F68" stroke-width="4.13885" stroke-miterlimit="10" stroke-linecap="round"/>
<path d="M142.31 38.7929C142.244 39.148 142.743 39.5392 143.423 39.6653C144.105 39.7914 144.711 39.6061 144.776 39.2523C144.842 38.8958 144.343 38.506 143.662 38.3786C142.981 38.2525 142.377 38.4378 142.31 38.7929Z" fill="#F68C7E"/>
<path d="M138.294 36.6874C138.294 37.0619 138.159 37.3675 137.994 37.3675C137.827 37.3675 137.693 37.0619 137.693 36.6874C137.693 36.3115 137.827 36.0072 137.994 36.0072C138.159 36.0072 138.294 36.3115 138.294 36.6874Z" fill="#2E222D"/>
<path d="M136.787 35.2358C137.48 34.6802 138.767 34.675 138.767 34.5726C138.767 34.4688 138.872 34.0696 138.777 34.0013C138.683 33.9343 137.14 34.3953 136.691 34.9639C136.571 35.1149 136.596 35.3855 136.787 35.2358Z" fill="#320E12"/>
<path d="M139.526 38.7929C139.592 39.148 139.095 39.5392 138.415 39.6653C137.731 39.7914 137.127 39.6061 137.06 39.2523C136.994 38.8958 137.493 38.506 138.174 38.3786C138.855 38.2525 139.461 38.4378 139.526 38.7929Z" fill="#F68C7E"/>
<path d="M140.236 39.0058C140.523 38.65 141.145 38.7463 141.483 39.0225" stroke="#E88F68" stroke-width="4.13884" stroke-miterlimit="10" stroke-linecap="round"/>
<path d="M142.606 41.6275C141.821 42.301 140.174 42.3593 139.24 41.6275" stroke="#E88F68" stroke-width="4.13882" stroke-miterlimit="10" stroke-linecap="round"/>
<path d="M135.423 62.6914C137.806 63.7304 140.134 62.2496 142.46 62.3878C144.748 62.5246 146.648 63.6184 148.741 61.793" stroke="#912B7F" stroke-width="4.81032" stroke-miterlimit="10" stroke-linecap="round"/>
<path d="M152.948 63.0634H159.44L161.761 53.7123C161.761 53.7123 153.961 49.7703 149.143 48.7736C145.213 47.9598 152.948 63.0634 152.948 63.0634Z" fill="#D24BAD"/>
<path d="M153.396 61.8701C153.43 60.8634 152.844 58.3076 152.498 57.3818" stroke="#912B7F" stroke-width="4.81032" stroke-miterlimit="10" stroke-linecap="round"/>
<path d="M107.34 36.4183H120.255V32.8573H107.34V36.4183Z" fill="#BDBCBC"/>
<path d="M118.357 37.1371C118.357 38.1912 119.212 39.0462 120.267 39.0462H122.4C123.455 39.0462 124.31 38.1912 124.31 37.1371V32.1392C124.31 31.0851 123.455 30.2287 122.4 30.2287H120.267C119.212 30.2287 118.357 31.0851 118.357 32.1392V37.1371Z" fill="#313D45"/>
<path d="M104.364 37.1371C104.364 38.1912 105.219 39.0462 106.273 39.0462H108.406C109.461 39.0462 110.315 38.1912 110.315 37.1371V32.1392C110.315 31.0851 109.461 30.2287 108.406 30.2287H106.273C105.219 30.2287 104.364 31.0851 104.364 32.1392V37.1371Z" fill="#313D45"/>
<path d="M118.358 37.1351H124.31V32.1373H118.358V37.1351Z" fill="#3D4D57"/>
<path d="M104.365 37.1351H110.316V32.1373H104.365V37.1351Z" fill="#3D4D57"/>
<path d="M114.763 38.1722C114.746 39.1271 115.256 55.9018 115.256 55.9018L131.474 50.642L130.826 61.7922C130.826 61.7922 110.316 64.7322 108.74 59.6255C106.378 51.9809 111.517 38.6315 112.796 37.5715C114.076 36.5102 114.78 37.216 114.763 38.1722Z" fill="#F9A984"/>
<path d="M117.093 32.26C116.129 30.9058 112.792 30.7459 111.977 32.1374C111.161 33.5288 112.3 38.2843 112.3 38.2843L114.732 38.3389C114.732 38.3389 118.056 33.6101 117.093 32.26Z" fill="#F9A984"/>
<path d="M115.323 55.753C114.763 55.9807 114.141 56.2333 113.528 56.3515" stroke="#E88F68" stroke-width="4.13884" stroke-miterlimit="10" stroke-linecap="round"/>
<path d="M130.197 63.0634H123.703L121.384 53.7123C121.384 53.7123 129.183 49.7703 134.001 48.7736C137.93 47.9598 130.197 63.0634 130.197 63.0634Z" fill="#D24BAD"/>
<path d="M129.747 61.8701C129.714 60.8634 130.3 58.3076 130.646 57.3818" stroke="#912B7F" stroke-width="4.81032" stroke-miterlimit="10" stroke-linecap="round"/>
<path d="M137.551 101.573C140.603 102.606 141.84 102.333 144.733 101.573" stroke="#682A8C" stroke-width="6.41376" stroke-miterlimit="10" stroke-linecap="round"/>
<path d="M125.879 124.828C127.29 125.522 129.148 125.685 130.667 125.128" stroke="#C27656" stroke-width="4.13884" stroke-miterlimit="10" stroke-linecap="round"/>
<path d="M155.792 124.828C154.379 125.522 152.521 125.685 151.003 125.128" stroke="#C27656" stroke-width="4.13884" stroke-miterlimit="10" stroke-linecap="round"/>
<path d="M38.2541 91.7264C37.5132 90.996 30.923 91.7625 29.5112 91.7675C28.1006 91.7725 26.2733 91.8534 25.4748 92.3473C25.0293 92.6223 25.4191 94.3208 26.6984 93.7584C27.9779 93.1972 29.6387 94.3096 30.7835 94.836C33.1979 95.9397 36.0409 95.9397 36.0409 95.9397C36.0409 95.9397 38.6379 95.7406 38.504 94.4005C38.452 93.8779 38.9937 92.4544 38.2541 91.7264Z" fill="#F9A984"/>
<path d="M113.646 204.402C113.591 203.449 102.141 183.198 102.143 164.849C102.143 158.408 113.789 162.143 112.657 170.821C110.704 185.785 114.829 200.024 116.067 204.162C116.543 205.755 113.702 205.356 113.646 204.402Z" fill="#EF9A78"/>
<path d="M123.17 205.469C123.17 206.541 116.705 206.576 114.212 206.321C112.79 206.174 113.646 204.402 113.646 204.402L116.067 204.162C116.067 204.162 123.17 203.81 123.17 205.469Z" fill="#EF9A78"/>
<path d="M23.5009 196.362C22.7502 197.055 23.265 198.364 22.4207 200.632C21.74 202.459 20.6218 203.901 21.0706 205.497C21.3807 206.601 23.4142 206.645 23.9637 206.645C24.4868 206.645 26.3072 206.844 26.4571 206.245C26.6063 205.647 24.4125 204.75 24.4125 204.75L28.6023 198.713L26.6478 196.355C26.6478 196.355 24.6449 195.305 23.5009 196.362Z" fill="#F9A984"/>
<path d="M76.6718 160.6C82.9512 156.573 87.8667 145.256 87.8667 145.256C87.8667 145.256 84.8536 142.787 79.612 141.138C73.9737 139.365 67.0899 143.106 61.5945 149.133C48.0157 164.025 28.4801 188.769 26.6478 196.355C27.1071 197.209 27.4756 198.418 28.6023 198.713C39.3039 193.66 76.6718 160.6 76.6718 160.6Z" fill="#8239A1"/>
<path d="M64.5084 150.119C67.3195 157.027 86.1301 143.722 86.1301 143.722C86.1301 143.722 85.2061 141.584 80.2843 135.08C68.1258 119.007 45.6256 97.5872 38.504 94.4005C37.5805 94.6941 36.322 94.9716 35.8273 96.0231C38.8383 107.47 64.5084 150.119 64.5084 150.119Z" fill="#8239A1"/>
<path d="M120.765 173.735C119.021 173.694 115.876 172.711 114.968 173.865C113.715 175.457 115.308 176.482 117.753 178.211C120.199 179.94 130.676 185.953 128.853 180.918C127.031 175.883 124.101 173.811 120.765 173.735Z" fill="#592513"/>
<path d="M75.5887 161.554C76.2271 163.589 81.7136 167.178 86.8087 170.671C88.4592 171.802 89.7906 174.015 90.7779 174.734C93.2761 176.556 101.98 179.8 103.522 179.344C105.066 178.89 107.664 177.155 107.664 177.155L111.618 171.563C111.618 171.563 114.738 162.123 100.116 153.887C93.8582 150.36 90.5225 143.905 86.1301 143.722C83.5993 143.617 74.7425 158.863 75.5887 161.554Z" fill="#D65CB6"/>
<path d="M108.771 181.003C108.842 179.597 109.868 178.412 109.868 178.412L107.664 177.155C107.664 177.155 99.2746 178.058 101.068 175.559C102.917 172.983 111.618 171.563 111.618 171.563L115.755 174.407C115.755 174.407 117.772 175.767 120.433 176.413C123.203 177.091 122.772 175.971 125.176 177.942C128.201 180.424 125.333 188.337 125.333 188.337L122.414 191.322C122.414 191.322 118.869 190.329 116.342 188.557C113.814 186.786 108.58 184.761 108.771 181.003Z" fill="#F9A984"/>
<path d="M127.25 178.094C130.264 181.829 129.521 185.51 127.387 189.235C125.253 192.963 121.332 193.405 119.438 192.065C118.37 191.311 117.353 189.199 117.353 189.199C117.353 189.199 121.031 190.613 121.849 189.056C119.864 184.539 123.269 182.11 121.717 179.944C121.118 179.107 120.714 178.599 120.149 178.185C119.247 177.523 119.343 175.878 120.33 176.166C121.318 176.457 125.776 176.269 127.25 178.094Z" fill="#592513"/>
<path d="M133.935 183.421C133.935 185.908 132.041 187.925 129.703 187.925C127.367 187.925 125.472 185.908 125.472 183.421C125.472 180.932 127.367 178.916 129.703 178.916C132.041 178.916 133.935 180.932 133.935 183.421Z" fill="#592513"/>
<path d="M120.149 178.185C119.354 179.016 119.199 176.705 119.811 176.089C120.248 175.65 121.308 175.584 122.249 176.248C123.286 176.983 123.239 177.943 122.804 178.384C122.042 179.151 120.695 177.618 120.149 178.185Z" fill="#F9A984"/>
<path d="M118.782 182.511C118.475 182.294 118.304 182.01 118.4 181.874C118.496 181.738 118.823 181.804 119.129 182.021C119.435 182.237 119.606 182.522 119.51 182.658C119.415 182.793 119.088 182.728 118.782 182.511Z" fill="#2E222D"/>
<path d="M120.838 182.119C120.892 183.006 120.152 184.06 120.236 184.12C120.319 184.18 120.586 184.496 120.697 184.457C120.805 184.419 121.321 182.893 121.115 182.199C121.061 182.012 120.824 181.879 120.838 182.119Z" fill="#592513"/>
<path d="M116.156 186.225C115.85 186.01 115.523 185.943 115.427 186.079C115.332 186.213 115.502 186.5 115.809 186.716C116.115 186.932 116.442 186.998 116.537 186.862C116.633 186.728 116.463 186.442 116.156 186.225Z" fill="#2E222D"/>
<path d="M116.689 188.159C117.541 187.913 118.074 187.001 118.158 187.06C118.241 187.118 118.628 187.264 118.63 187.381C118.629 187.497 117.55 188.359 116.825 188.397C116.632 188.407 116.456 188.226 116.689 188.159Z" fill="#592513"/>
<path d="M117.42 184.583C115.939 183.314 115.132 184.288 114.647 183.963C114.16 183.638 114.385 182.757 114.385 182.757" stroke="#E88F68" stroke-width="4.13884" stroke-miterlimit="10" stroke-linecap="round"/>
<path d="M112.477 176.283C110.97 176.556 110.072 178.124 110.072 178.124" stroke="#E88F68" stroke-width="4.13884" stroke-miterlimit="10" stroke-linecap="round"/>
<path d="M113.678 186.523C113.439 186.326 113.551 185.795 113.927 185.336C114.305 184.878 114.804 184.664 115.045 184.86C115.284 185.058 115.172 185.591 114.795 186.049C114.417 186.507 113.918 186.718 113.678 186.523Z" fill="#F68C7E"/>
<path d="M116.351 182.302C116.023 182.151 115.991 181.519 116.281 180.89C116.571 180.26 117.072 179.873 117.4 180.024C117.728 180.174 117.76 180.809 117.47 181.437C117.18 182.067 116.679 182.454 116.351 182.302Z" fill="#F68C7E"/>
<path d="M112.003 183.594C111.657 183.414 110.953 182.183 111.297 181.521C111.643 180.856 112.953 180.467 113.299 180.646C113.645 180.825 113.743 181.889 113.399 182.552C113.053 183.215 112.349 183.775 112.003 183.594Z" fill="#F68C7E"/>
<path d="M113.802 180.723C113.802 180.723 112.609 180.24 111.784 181.645C110.957 183.051 112.275 183.805 112.275 183.805L113.802 180.723Z" fill="white"/>
<path d="M89.3895 170.821C90.945 169.775 91.3599 167.981 92.2223 166.47C93.1686 164.812 94.1642 164.008 96.0118 163.529" stroke="#912B7F" stroke-width="4.81032" stroke-miterlimit="10" stroke-linecap="round"/>
<path d="M75.5319 156.228C71.3158 155.426 67.2537 152.065 63.6204 148.628" stroke="#682A8C" stroke-width="6.41376" stroke-miterlimit="10" stroke-linecap="round"/>
<path d="M110.442 205.01C110.388 204.056 98.9388 183.805 98.9396 165.458C98.9396 159.016 110.547 158.497 109.415 167.176C107.462 182.139 111.625 200.63 112.864 204.769C113.34 206.362 110.499 205.963 110.442 205.01Z" fill="#F9A984"/>
<path d="M119.967 206.076C119.967 207.146 113.502 207.182 111.009 206.928C109.587 206.782 110.442 205.01 110.442 205.01L112.864 204.769C112.864 204.769 119.967 204.416 119.967 206.076Z" fill="#F9A984"/>
<path d="M264.088 189.866C264.088 192.044 263.832 194.158 263.356 196.186V196.191C263.255 196.619 263.144 197.041 263.02 197.456C261.361 203.237 257.837 208.24 253.15 211.764C252.419 212.312 251.666 212.831 250.88 213.3C246.745 215.814 241.891 217.256 236.698 217.256C227.954 217.256 220.165 213.156 215.147 206.778C214.865 206.414 214.591 206.051 214.331 205.673C211.613 201.845 209.862 197.286 209.42 192.348C209.382 191.969 209.361 191.591 209.345 191.211C209.319 190.768 209.308 190.32 209.308 189.866C209.308 186.572 209.89 183.417 210.951 180.498C211.063 180.183 211.181 179.878 211.309 179.574C212.825 175.826 215.152 172.49 218.067 169.784C218.388 169.485 218.718 169.197 219.055 168.913C223.817 164.894 229.977 162.471 236.698 162.471C239.185 162.471 241.598 162.801 243.889 163.432H243.893C244.582 163.613 245.245 163.826 245.907 164.066H245.917C250.689 165.77 254.848 168.759 257.977 172.618C258.205 172.896 258.43 173.178 258.649 173.467C260.934 176.536 262.599 180.097 263.447 183.962C263.528 184.309 263.597 184.651 263.662 185.003V185.008C263.939 186.583 264.088 188.206 264.088 189.866Z" fill="#BB2E9E"/>
<path d="M261.194 191.312C261.107 191.361 261.002 191.419 260.869 191.494C260.511 191.681 260.014 192.002 259.332 192.316C258.984 192.466 258.599 192.626 258.183 192.807C257.768 192.99 257.317 193.186 256.816 193.341C256.319 193.506 255.792 193.688 255.231 193.874C254.677 194.073 254.072 194.2 253.447 194.377C252.21 194.745 250.832 195.002 249.385 195.31C248.659 195.461 247.906 195.552 247.138 195.685C246.369 195.808 245.59 195.936 244.783 196.01C243.983 196.1 243.168 196.186 242.339 196.282C241.512 196.335 240.669 196.394 239.825 196.447C239.403 196.475 238.977 196.501 238.549 196.528C238.121 196.538 237.695 196.55 237.262 196.555C236.408 196.571 235.545 196.587 234.684 196.603C233.82 196.587 232.96 196.566 232.101 196.543C231.673 196.533 231.24 196.533 230.814 196.507C230.386 196.48 229.965 196.447 229.538 196.421C228.694 196.357 227.851 196.298 227.024 196.245C226.197 196.144 225.38 196.047 224.572 195.951C222.962 195.797 221.423 195.476 219.962 195.242C219.225 195.13 218.521 194.959 217.842 194.804C217.158 194.643 216.502 194.494 215.866 194.35C215.232 194.221 214.634 194.024 214.068 193.859C213.498 193.694 212.953 193.533 212.446 193.384C211.414 193.107 210.571 192.769 209.862 192.514C209.706 192.455 209.557 192.401 209.418 192.349C209.381 191.969 209.36 191.591 209.344 191.212C209.6 191.312 209.898 191.43 210.225 191.559C210.929 191.83 211.773 192.183 212.765 192.466C213.257 192.626 213.784 192.792 214.334 192.962C214.89 193.139 215.465 193.335 216.097 193.475C216.717 193.634 217.363 193.795 218.034 193.96C218.701 194.132 219.395 194.312 220.116 194.435C221.563 194.697 223.079 195.044 224.67 195.231C225.465 195.338 226.271 195.449 227.093 195.562C227.915 195.636 228.748 195.711 229.587 195.786C230.008 195.823 230.429 195.861 230.851 195.899C231.274 195.93 231.7 195.941 232.128 195.962C232.976 195.999 233.836 196.037 234.689 196.069C235.545 196.074 236.403 196.074 237.256 196.074C237.684 196.074 238.112 196.074 238.533 196.069C238.959 196.053 239.382 196.032 239.804 196.016C240.647 195.973 241.48 195.936 242.307 195.899C243.135 195.823 243.946 195.748 244.746 195.675C245.547 195.615 246.332 195.503 247.095 195.396C247.863 195.279 248.618 195.204 249.343 195.065C250.791 194.788 252.167 194.557 253.411 194.216C254.031 194.051 254.638 193.934 255.194 193.752C255.753 193.576 256.282 193.405 256.785 193.245C257.287 193.107 257.739 192.914 258.157 192.743C258.579 192.573 258.962 192.417 259.309 192.273C259.998 191.974 260.5 191.659 260.862 191.484C260.997 191.414 261.107 191.355 261.194 191.312Z" fill="#732783"/>
<path d="M263.66 185.004V185.008C263.389 185.116 263.078 185.238 262.732 185.377C262.031 185.654 261.193 186.011 260.174 186.316C259.668 186.477 259.134 186.652 258.568 186.834C258.002 187.016 257.408 187.223 256.779 187.368C256.15 187.533 255.493 187.699 254.82 187.875C254.142 188.051 253.443 188.238 252.711 188.372C251.25 188.643 249.728 189.007 248.115 189.204C247.314 189.321 246.504 189.44 245.676 189.557C244.849 189.636 244.01 189.717 243.167 189.802C242.74 189.839 242.317 189.882 241.89 189.925C241.463 189.957 241.036 189.967 240.611 189.995C239.75 190.037 238.89 190.079 238.026 190.123C237.167 190.128 236.302 190.138 235.447 190.144C235.016 190.144 234.587 190.149 234.161 190.149C233.734 190.133 233.307 190.118 232.885 190.1C232.036 190.069 231.198 190.032 230.365 190C229.538 189.93 228.721 189.861 227.916 189.792C227.109 189.743 226.326 189.631 225.549 189.529C224.783 189.418 224.024 189.349 223.298 189.214C221.84 188.948 220.459 188.724 219.208 188.393C218.584 188.233 217.976 188.121 217.414 187.939C216.85 187.762 216.321 187.597 215.819 187.442C215.311 187.304 214.859 187.118 214.436 186.946C214.016 186.78 213.624 186.626 213.276 186.487C212.584 186.188 212.076 185.878 211.714 185.703C211.4 185.542 211.217 185.447 211.18 185.424C211.217 185.447 211.405 185.537 211.719 185.692C212.088 185.862 212.6 186.161 213.294 186.444C213.647 186.573 214.037 186.722 214.462 186.881C214.884 187.042 215.339 187.218 215.845 187.347C216.347 187.496 216.887 187.645 217.447 187.811C218.008 187.982 218.621 188.083 219.245 188.227C220.496 188.536 221.877 188.729 223.335 188.969C224.061 189.086 224.818 189.146 225.588 189.242C226.357 189.328 227.141 189.418 227.942 189.456C228.749 189.508 229.559 189.562 230.386 189.615C231.214 189.631 232.054 189.647 232.897 189.668C233.317 189.673 233.739 189.685 234.166 189.69C234.587 189.68 235.016 189.668 235.443 189.659C236.297 189.636 237.151 189.615 238.01 189.589C238.864 189.529 239.718 189.471 240.567 189.412C240.994 189.38 241.421 189.359 241.844 189.316C242.264 189.268 242.681 189.219 243.102 189.172C243.94 189.071 244.768 188.974 245.59 188.885C246.402 188.745 247.208 188.612 247.999 188.483C249.589 188.26 251.093 187.869 252.529 187.571C253.251 187.426 253.94 187.228 254.602 187.042C255.268 186.855 255.909 186.68 256.528 186.503C257.148 186.347 257.719 186.135 258.269 185.948C258.819 185.755 259.341 185.58 259.827 185.409C260.81 185.099 261.648 184.72 262.342 184.431C262.767 184.251 263.138 184.095 263.447 183.962C263.528 184.309 263.597 184.651 263.66 185.004Z" fill="#732783"/>
<path d="M260.569 178.687C260.483 178.736 260.376 178.794 260.243 178.869C259.886 179.051 259.389 179.377 258.707 179.692C258.36 179.841 257.974 180 257.557 180.183C257.142 180.365 256.692 180.561 256.192 180.717C255.695 180.882 255.166 181.064 254.606 181.251C254.051 181.448 253.447 181.577 252.824 181.752C251.585 182.12 250.208 182.377 248.761 182.687C248.036 182.836 247.283 182.927 246.514 183.055C245.745 183.183 244.965 183.311 244.161 183.386C243.358 183.47 242.543 183.561 241.715 183.652C240.888 183.712 240.044 183.764 239.2 183.823C238.773 183.85 238.351 183.876 237.924 183.904C237.497 183.915 237.071 183.925 236.637 183.93C235.784 183.946 234.919 183.962 234.06 183.978C233.195 183.957 232.335 183.941 231.477 183.92C231.044 183.904 230.617 183.904 230.188 183.881C229.761 183.85 229.341 183.823 228.913 183.791C228.07 183.733 227.228 183.673 226.393 183.615C225.571 183.519 224.75 183.423 223.949 183.326C222.337 183.172 220.799 182.852 219.337 182.611C218.6 182.505 217.896 182.334 217.218 182.174C216.533 182.018 215.872 181.869 215.243 181.725C214.606 181.591 214.008 181.4 213.439 181.234C212.872 181.068 212.328 180.908 211.82 180.759C211.516 180.678 211.222 180.589 210.95 180.498C211.062 180.183 211.18 179.878 211.307 179.574C211.569 179.67 211.852 179.755 212.141 179.841C212.632 179.996 213.16 180.162 213.709 180.337C214.264 180.509 214.843 180.711 215.471 180.85C216.09 181.004 216.737 181.17 217.409 181.335C218.077 181.507 218.771 181.687 219.492 181.811C220.939 182.072 222.449 182.419 224.045 182.601C224.841 182.713 225.647 182.825 226.47 182.937C227.29 183.011 228.123 183.086 228.962 183.161C229.384 183.199 229.8 183.237 230.227 183.274C230.647 183.305 231.076 183.316 231.498 183.337C232.351 183.375 233.211 183.407 234.065 183.444C234.919 183.444 235.779 183.444 236.632 183.449C237.059 183.444 237.486 183.444 237.908 183.444C238.335 183.428 238.757 183.407 239.179 183.391C240.023 183.347 240.855 183.311 241.683 183.268C242.511 183.193 243.321 183.118 244.122 183.05C244.923 182.99 245.708 182.878 246.471 182.766C247.24 182.654 247.993 182.575 248.718 182.44C250.165 182.163 251.541 181.934 252.78 181.591C253.406 181.426 254.015 181.309 254.569 181.127C255.13 180.946 255.658 180.78 256.158 180.62C256.662 180.475 257.114 180.289 257.532 180.118C257.954 179.948 258.337 179.787 258.684 179.649C259.373 179.349 259.875 179.034 260.238 178.859C260.371 178.789 260.483 178.73 260.569 178.687Z" fill="#732783"/>
<path d="M258.648 173.467C258.568 173.493 258.483 173.521 258.398 173.553C258.104 173.649 257.784 173.756 257.436 173.873C257.077 173.985 256.689 174.087 256.278 174.204C255.446 174.428 254.516 174.731 253.486 174.95C252.455 175.192 251.35 175.474 250.16 175.682C249.567 175.794 248.954 175.912 248.334 176.029C247.704 176.125 247.064 176.222 246.412 176.318C245.116 176.536 243.76 176.644 242.388 176.808C241.01 176.904 239.611 177.055 238.208 177.092C237.508 177.113 236.808 177.155 236.11 177.167C235.41 177.172 234.717 177.172 234.028 177.178C233.34 177.193 232.656 177.15 231.978 177.139C231.3 177.118 230.632 177.113 229.982 177.06C229.326 177.022 228.679 176.985 228.049 176.943C227.419 176.883 226.806 176.825 226.207 176.771C225.007 176.675 223.88 176.484 222.839 176.36C221.803 176.184 220.853 176.036 220.021 175.864C219.188 175.682 218.456 175.544 217.864 175.393C216.903 175.143 216.274 174.978 216.07 174.924C216.274 174.973 216.903 175.122 217.876 175.351C218.467 175.484 219.197 175.608 220.037 175.768C220.875 175.917 221.825 176.039 222.86 176.195C223.907 176.291 225.028 176.456 226.229 176.526C226.827 176.563 227.441 176.605 228.071 176.654C228.695 176.675 229.342 176.702 229.993 176.724C230.648 176.761 231.31 176.75 231.984 176.755C232.656 176.75 233.34 176.777 234.023 176.745C234.711 176.724 235.401 176.702 236.094 176.68C236.788 176.654 237.488 176.594 238.181 176.558C239.574 176.488 240.958 176.307 242.318 176.179C243.68 175.981 245.019 175.848 246.301 175.596C246.947 175.484 247.577 175.372 248.196 175.265C248.81 175.132 249.407 175.004 249.991 174.876C251.163 174.647 252.253 174.337 253.261 174.081C254.277 173.836 255.173 173.521 255.979 173.281C256.379 173.157 256.758 173.045 257.106 172.927C257.42 172.815 257.714 172.71 257.976 172.619C258.204 172.896 258.429 173.179 258.648 173.467Z" fill="#732783"/>
<path d="M245.907 164.066C245.548 164.109 245.143 164.152 244.7 164.206C244.256 164.253 243.781 164.306 243.274 164.365C242.767 164.435 242.223 164.445 241.663 164.483C240.546 164.542 239.35 164.605 238.161 164.67C237.562 164.696 236.963 164.675 236.382 164.681C235.796 164.675 235.219 164.675 234.658 164.675C234.103 164.67 233.564 164.681 233.051 164.665C232.546 164.632 232.063 164.605 231.615 164.579C229.839 164.478 228.653 164.408 228.653 164.408C228.653 164.408 229.839 164.408 231.621 164.413H233.056C233.564 164.402 234.103 164.365 234.658 164.339C235.209 164.306 235.783 164.274 236.366 164.242C236.948 164.206 237.541 164.194 238.128 164.136C239.303 164.008 240.477 163.88 241.577 163.756C242.126 163.693 242.656 163.649 243.156 163.554C243.407 163.511 243.653 163.469 243.888 163.432H243.894C244.582 163.613 245.244 163.826 245.907 164.066Z" fill="#732783"/>
<path d="M251.03 168.85C250.838 168.893 250.379 168.999 249.695 169.16C249.242 169.26 248.686 169.388 248.052 169.533C247.422 169.693 246.69 169.779 245.9 169.922C245.11 170.045 244.261 170.227 243.348 170.328C242.436 170.435 241.469 170.542 240.476 170.654C240.226 170.686 239.974 170.712 239.723 170.74C239.467 170.756 239.211 170.771 238.956 170.787C238.443 170.819 237.919 170.852 237.391 170.884C236.345 170.948 235.272 171.028 234.204 171.011C233.131 171.022 232.064 171.032 231.007 171.043C229.955 170.995 228.919 170.953 227.916 170.91C227.414 170.889 226.918 170.862 226.436 170.841C225.951 170.798 225.481 170.75 225.022 170.702C224.098 170.612 223.228 170.526 222.429 170.446C221.615 170.381 220.907 170.227 220.26 170.136C219.619 170.034 219.06 169.943 218.595 169.869C218.403 169.838 218.221 169.81 218.067 169.784C218.386 169.486 218.717 169.197 219.054 168.913C219.455 168.994 219.914 169.08 220.431 169.181C221.067 169.293 221.788 169.474 222.572 169.554C223.362 169.661 224.21 169.773 225.113 169.89C225.566 169.95 226.025 170.008 226.501 170.072C226.981 170.104 227.468 170.141 227.962 170.179C228.957 170.253 229.986 170.334 231.027 170.409C232.074 170.43 233.137 170.456 234.198 170.477C235.265 170.526 236.328 170.483 237.374 170.451C237.898 170.435 238.417 170.419 238.933 170.403C239.19 170.398 239.441 170.386 239.696 170.381C239.947 170.36 240.199 170.339 240.45 170.318C241.443 170.237 242.404 170.158 243.317 170.083C244.229 170.013 245.084 169.859 245.878 169.762C246.669 169.64 247.4 169.575 248.035 169.437C248.669 169.314 249.225 169.202 249.686 169.111C250.373 168.978 250.838 168.882 251.03 168.85Z" fill="#732783"/>
<path d="M253.15 211.764C252.418 212.313 251.665 212.832 250.881 213.301C250.786 213.322 250.683 213.338 250.583 213.354C249.919 213.476 249.21 213.604 248.453 213.737C247.7 213.888 246.899 213.974 246.071 214.086C245.244 214.187 244.39 214.326 243.52 214.394C242.649 214.47 241.762 214.544 240.877 214.624C239.992 214.699 239.105 214.709 238.229 214.753C237.797 214.774 237.359 214.79 236.932 214.811C236.505 214.811 236.084 214.816 235.666 214.816H233.27C232.507 214.784 231.787 214.758 231.123 214.732C230.462 214.704 229.853 214.683 229.314 214.63C228.775 214.587 228.306 214.55 227.921 214.518C227.34 214.475 226.944 214.443 226.784 214.427C226.944 214.433 227.34 214.448 227.921 214.475C228.311 214.491 228.781 214.513 229.32 214.534C229.853 214.566 230.468 214.566 231.13 214.566H233.27C234.028 214.539 234.828 214.507 235.655 214.48C236.073 214.459 236.494 214.443 236.917 214.427C237.344 214.389 237.769 214.357 238.207 214.32C239.072 214.24 239.953 214.203 240.83 214.091C241.705 213.984 242.581 213.872 243.446 213.765C244.303 213.669 245.142 213.492 245.959 213.365C246.776 213.226 247.566 213.108 248.296 212.932C249.034 212.772 249.733 212.618 250.374 212.478C251.019 212.35 251.608 212.184 252.126 212.04C252.504 211.939 252.845 211.848 253.15 211.764Z" fill="#732783"/>
<path d="M263.356 196.191C263.256 196.619 263.143 197.041 263.02 197.456C262.828 197.531 262.619 197.617 262.395 197.708C261.713 197.975 260.895 198.337 259.897 198.642C258.909 198.957 257.804 199.368 256.581 199.715C255.969 199.881 255.329 200.051 254.665 200.228C254.004 200.403 253.327 200.612 252.61 200.75C251.9 200.9 251.168 201.06 250.422 201.216C250.049 201.295 249.669 201.385 249.289 201.455C248.905 201.519 248.515 201.578 248.121 201.641C247.341 201.771 246.546 201.898 245.74 202.032C244.928 202.144 244.108 202.223 243.28 202.319C241.631 202.545 239.937 202.608 238.255 202.736C237.414 202.783 236.564 202.783 235.725 202.811C234.883 202.832 234.045 202.853 233.213 202.821C232.384 202.801 231.557 202.783 230.745 202.768C229.928 202.715 229.128 202.656 228.338 202.608C227.548 202.566 226.774 202.475 226.016 202.384C225.258 202.287 224.515 202.228 223.801 202.111C222.369 201.866 221.014 201.668 219.786 201.349C219.172 201.199 218.569 201.097 218.018 200.916C217.469 200.75 216.945 200.596 216.454 200.445C215.958 200.312 215.511 200.126 215.1 199.96C214.683 199.801 214.304 199.65 213.963 199.512C213.284 199.219 212.788 198.92 212.431 198.748C212.126 198.589 211.938 198.492 211.901 198.471C211.938 198.492 212.126 198.583 212.436 198.738C212.793 198.904 213.3 199.191 213.977 199.47C214.325 199.597 214.704 199.741 215.121 199.897C215.538 200.051 215.986 200.228 216.482 200.35C216.978 200.489 217.501 200.638 218.055 200.793C218.606 200.958 219.204 201.044 219.823 201.188C221.051 201.477 222.407 201.647 223.832 201.866C224.547 201.967 225.289 202.016 226.047 202.095C226.8 202.17 227.569 202.246 228.359 202.267C229.144 202.304 229.944 202.342 230.755 202.384H233.213C234.038 202.4 234.872 202.368 235.709 202.326C236.548 202.283 237.386 202.267 238.225 202.202C239.895 202.042 241.571 201.946 243.204 201.695C244.022 201.578 244.838 201.482 245.639 201.359C246.434 201.209 247.22 201.065 247.993 200.927C248.378 200.857 248.763 200.783 249.141 200.713C249.52 200.638 249.894 200.542 250.262 200.457C250.999 200.286 251.719 200.114 252.419 199.949C253.122 199.806 253.791 199.581 254.442 199.4C255.088 199.207 255.718 199.026 256.321 198.85C257.523 198.487 258.585 198.065 259.544 197.739C260.506 197.424 261.328 197.046 262.005 196.763C262.555 196.528 263.015 196.335 263.356 196.191Z" fill="#732783"/>
<path d="M258.894 203.627C259.027 203.559 259.139 203.499 259.224 203.457C259.139 203.505 259.032 203.569 258.898 203.638C258.541 203.825 258.044 204.146 257.362 204.461C257.014 204.61 256.63 204.776 256.214 204.952C255.797 205.133 255.349 205.331 254.846 205.486C254.35 205.65 253.822 205.832 253.262 206.02C252.707 206.217 252.103 206.345 251.478 206.52C250.24 206.89 248.863 207.146 247.416 207.455C246.69 207.604 245.937 207.701 245.17 207.829C244.405 207.951 243.621 208.079 242.815 208.155C242.015 208.245 241.196 208.331 240.37 208.427C239.543 208.48 238.699 208.539 237.856 208.592C237.434 208.619 237.007 208.646 236.58 208.672C236.153 208.683 235.725 208.693 235.298 208.704C234.438 208.72 233.574 208.736 232.716 208.753C231.85 208.731 230.99 208.71 230.131 208.688C229.703 208.678 229.272 208.678 228.845 208.65C228.417 208.624 227.995 208.592 227.569 208.566C226.725 208.501 225.882 208.443 225.055 208.389C224.226 208.288 223.41 208.191 222.604 208.096C220.993 207.941 219.455 207.621 217.992 207.386C217.255 207.273 216.549 207.103 215.873 206.948C215.627 206.89 215.387 206.836 215.147 206.778C214.863 206.414 214.592 206.051 214.331 205.673C214.886 205.816 215.466 205.955 216.064 206.105C216.732 206.275 217.426 206.457 218.151 206.58C219.593 206.841 221.109 207.188 222.699 207.375C223.496 207.482 224.307 207.594 225.123 207.706C225.945 207.781 226.779 207.855 227.617 207.93C228.038 207.967 228.461 208.005 228.883 208.042C229.304 208.074 229.73 208.086 230.158 208.107C231.006 208.144 231.866 208.181 232.72 208.219H235.289C235.714 208.219 236.141 208.219 236.564 208.214C236.991 208.198 237.412 208.175 237.834 208.159C238.678 208.117 239.515 208.079 240.338 208.042C241.165 207.967 241.977 207.893 242.777 207.818C243.578 207.76 244.364 207.648 245.13 207.541C245.895 207.424 246.648 207.349 247.373 207.21C248.82 206.932 250.197 206.702 251.441 206.361C252.061 206.195 252.667 206.083 253.224 205.897C253.785 205.72 254.313 205.55 254.814 205.394C255.317 205.251 255.77 205.058 256.187 204.888C256.608 204.717 256.993 204.562 257.34 204.419C258.028 204.119 258.536 203.804 258.894 203.627Z" fill="#732783"/>
<path d="M265.401 141.351C266.761 144.361 266.609 147.384 266.604 150.702C266.601 153.614 267.429 156.434 269.175 158.782C272.627 163.423 262.74 172.152 260.191 167.486C259.368 165.98 259.766 163.147 259.845 161.443C259.954 159.12 260.787 156.461 261.352 154.221C262.177 150.959 263.168 147.386 262.628 144.031C262.551 143.556 262.381 143.035 262.254 142.556L265.401 141.351Z" fill="#142137"/>
<path d="M249.955 133.562L235.007 135.761C235.007 135.761 242.328 140.06 244.779 143.248C246.34 145.283 236.732 146.086 234.334 145.378C231.939 144.67 222.002 137.165 223.479 133.417C226.47 125.838 251.022 131.571 251.022 131.571L249.955 133.562Z" fill="#F9A984"/>
<path d="M257.863 133.094C258.515 134.49 256.86 136.719 255.361 136.74C253.863 136.763 249.955 133.562 249.955 133.562L251.022 131.571C251.022 131.571 257.212 131.697 257.863 133.094Z" fill="#F9A984"/>
<path d="M203.208 159.968C203.208 159.968 179.117 160.922 175.796 165.801C172.476 170.677 175.31 208.896 175.31 208.896L179.148 209.413C179.148 209.413 183.314 190.075 184.204 183.469C185.095 176.863 184.28 171.474 184.28 171.474C184.28 171.474 207.864 179.34 216.766 175.854C223.419 173.248 224.797 170.305 223.184 162.661C221.771 155.966 212.631 160.256 203.208 159.968Z" fill="#F9A984"/>
<path d="M217.255 158.125C217.255 158.125 199.42 160.118 194.641 160.602L197.632 175.067C204.986 176.785 211.945 177.743 216.766 175.854C223.419 173.248 224.797 170.305 223.184 162.661C221.771 155.966 217.255 158.125 217.255 158.125Z" fill="#2B727F"/>
<path d="M259.215 146.37C257.598 146.429 254.546 146.643 253.834 146.322C252.119 145.551 254.115 143.89 256.362 142.255C258.608 140.618 268.252 134.901 266.628 139.598C265.002 144.294 262.309 146.255 259.215 146.37Z" fill="#142137"/>
<path d="M189.945 216.856C189.288 217.56 183.146 217.109 181.838 217.161C180.529 217.212 178.833 217.207 178.073 216.781C177.647 216.543 177.942 214.954 179.15 215.425C180.36 215.894 181.843 214.773 182.897 214.265C183.95 213.76 186.457 213.089 186.457 213.089C186.457 213.089 190.489 212.238 190.311 213.476C190.133 214.714 190.604 216.15 189.945 216.856Z" fill="#F9A984"/>
<path d="M206.484 163.427C206.484 163.427 182.439 165.195 179.286 170.181C176.132 175.168 186.457 213.089 186.457 213.089L190.311 213.476C190.311 213.476 190.238 189.055 189.895 184.255C189.582 179.902 187.957 175.565 187.957 175.565C187.957 175.565 211.792 182.632 220.57 178.846C227.131 176.015 227.411 172.23 226.539 165.442C225.668 158.656 212.849 160.716 206.484 163.427Z" fill="#F9A984"/>
<path d="M178.669 212.778C177.988 213.461 171.865 212.803 170.554 212.809C169.246 212.815 167.549 212.754 166.804 212.303C166.388 212.053 166.737 210.472 167.929 210.984C169.121 211.494 170.641 210.422 171.712 209.952C172.78 209.482 175.31 208.896 175.31 208.896C175.31 208.896 179.367 208.181 179.148 209.413C178.927 210.645 179.351 212.096 178.669 212.778Z" fill="#F9A984"/>
<path d="M209.607 162.314C209.607 162.314 202.653 163.251 197.633 164.057L200.405 178.519C207.587 179.873 217.013 181.495 222.297 179.081C225.039 177.827 228.015 175.627 228.653 174.163C229.717 171.722 227.084 169.684 226.539 165.442C225.668 158.656 215.971 159.604 209.607 162.314Z" fill="#2B727F"/>
<path d="M215.961 158.234C216.526 156.339 223.061 152.959 227.744 149.653C229.261 148.581 230.466 146.511 231.373 145.831C233.669 144.106 241.704 140.984 243.142 141.387C244.58 141.789 247.013 143.365 247.013 143.365L250.755 148.504C250.755 148.504 252.568 151.659 251.424 154.275C248.099 161.877 244.643 162.741 241.138 165.292C235.749 169.215 231.571 171.328 228.653 174.163C226.967 175.8 215.211 160.743 215.961 158.234Z" fill="#E9E9E9"/>
<path d="M247.991 139.778C248.074 141.082 249.042 142.17 249.042 142.17L247.013 143.364C247.013 143.364 239.216 142.636 240.914 144.932C242.662 147.298 250.756 148.503 250.756 148.503L254.557 145.809C254.557 145.809 256.411 144.522 258.872 143.887C261.433 143.222 261.048 144.268 263.253 142.407C266.029 140.064 263.264 132.759 263.264 132.759L260.516 130.026C260.516 130.026 257.24 130.995 254.918 132.669C252.593 134.347 247.764 136.294 247.991 139.778Z" fill="#F9A984"/>
<path d="M265.176 142.238C267.926 138.734 267.186 135.328 265.157 131.897C263.131 128.466 259.485 128.108 257.746 129.376C256.764 130.09 255.849 132.062 255.849 132.062C255.849 132.062 259.243 130.702 260.022 132.137C258.239 136.354 261.429 138.562 260.017 140.594C259.473 141.378 259.105 141.855 258.586 142.247C257.757 142.874 257.867 144.398 258.78 144.117C259.694 143.835 263.833 143.952 265.176 142.238Z" fill="#142137"/>
<path d="M258.586 142.247C257.837 141.485 257.723 143.632 258.3 144.196C258.711 144.597 259.695 144.646 260.561 144.016C261.512 143.322 261.456 142.431 261.047 142.027C260.33 141.326 259.099 142.766 258.586 142.247Z" fill="#F9A984"/>
<path d="M257.259 138.251C256.979 138.456 256.822 138.722 256.914 138.847C257.004 138.971 257.307 138.906 257.588 138.701C257.87 138.496 258.024 138.229 257.933 138.104C257.843 137.98 257.541 138.045 257.259 138.251Z" fill="#2E222D"/>
<path d="M259.174 138.586C259.212 137.764 258.511 136.793 258.589 136.737C258.664 136.681 258.909 136.385 259.011 136.419C259.113 136.453 259.612 137.862 259.429 138.51C259.381 138.682 259.164 138.812 259.174 138.586Z" fill="#142137"/>
<path d="M254.775 134.837C254.493 135.042 254.191 135.108 254.1 134.984C254.011 134.858 254.165 134.592 254.446 134.387C254.728 134.181 255.03 134.117 255.121 134.24C255.211 134.366 255.056 134.633 254.775 134.837Z" fill="#2E222D"/>
<path d="M255.243 133.037C256.039 133.254 256.545 134.094 256.621 134.038C256.698 133.982 257.056 133.841 257.055 133.733C257.053 133.626 256.039 132.839 255.367 132.814C255.187 132.808 255.027 132.977 255.243 133.037Z" fill="#142137"/>
<path d="M255.969 136.347C254.612 137.542 253.851 136.649 253.403 136.957C252.957 137.264 253.175 138.079 253.175 138.079" stroke="#E88F68" stroke-width="3.84114" stroke-miterlimit="10" stroke-linecap="round"/>
<path d="M251.491 144.111C250.09 143.878 249.236 142.433 249.236 142.433" stroke="#E88F68" stroke-width="3.84116" stroke-miterlimit="10" stroke-linecap="round"/>
<path d="M214.607 159.039C214.607 159.039 211.96 161.766 210.449 162.073C205.653 163.05 200.235 164.058 200.235 164.058" stroke="#105D6E" stroke-width="4.46435" stroke-miterlimit="10" stroke-linecap="round"/>
<path d="M252.471 134.593C252.253 134.779 252.362 135.27 252.719 135.692C253.074 136.113 253.54 136.303 253.762 136.117C253.981 135.932 253.871 135.441 253.515 135.019C253.159 134.598 252.693 134.408 252.471 134.593Z" fill="#F68C7E"/>
<path d="M255.007 138.476C254.705 138.62 254.684 139.206 254.96 139.787C255.238 140.367 255.708 140.72 256.01 140.576C256.314 140.432 256.334 139.843 256.057 139.263C255.779 138.683 255.31 138.331 255.007 138.476Z" fill="#F68C7E"/>
<path d="M250.954 137.332C250.636 137.505 249.999 138.656 250.328 139.267C250.656 139.878 251.878 140.224 252.195 140.052C252.515 139.882 252.592 138.894 252.264 138.282C251.935 137.672 251.273 137.162 250.954 137.332Z" fill="#F68C7E"/>
<path d="M252.661 139.974C252.661 139.974 251.56 140.438 250.776 139.146C249.99 137.851 251.204 137.133 251.204 137.133L252.661 139.974Z" fill="white"/>
<path d="M230.137 149.48C231.595 150.431 232.002 152.09 232.822 153.481C233.721 155.006 234.656 155.741 236.376 156.161" stroke="#A7A5A6" stroke-width="4.46435" stroke-miterlimit="10" stroke-linecap="round"/>
<path d="M262.002 147.224L256.425 161.268C256.425 161.268 254.128 153.802 251.587 150.684C249.363 151.999 246.771 157.214 246.911 159.71C247.05 162.205 252.07 173.6 256.058 173.023C264.122 171.856 264.184 146.643 264.184 146.643L262.002 147.224Z" fill="#F9A984"/>
<path d="M264.273 139.637C263.065 138.68 260.514 139.78 260.151 141.232C259.785 142.685 262.001 147.224 262.001 147.224L264.184 146.643C264.184 146.643 265.484 140.591 264.273 139.637Z" fill="#F9A984"/>
<path d="M254.984 164.283C255.337 163.379 255.601 162.439 256.164 161.675" stroke="#E88F68" stroke-width="3.84115" stroke-miterlimit="10" stroke-linecap="round"/>
<path d="M187.678 175.277C187.569 174.765 187.136 174.363 186.794 173.961" stroke="#E88F68" stroke-width="3.84115" stroke-miterlimit="10" stroke-linecap="round"/>
<path d="M181.776 193.907C181.776 193.907 177.888 174.62 179.285 170.181C180.808 165.342 193.602 165.013 193.602 165.013" stroke="#E88F68" stroke-width="3.84115" stroke-miterlimit="10" stroke-linecap="round"/>
<path d="M251.725 134.633C253.121 134.289 254.388 133.015 255.614 132.272" stroke="#E88F68" stroke-width="3.84116" stroke-miterlimit="10" stroke-linecap="round"/>
<path d="M234.758 135.583C233.912 135.024 232.888 134.244 231.888 134.101" stroke="#E88F68" stroke-width="3.84114" stroke-miterlimit="10" stroke-linecap="round"/>
</svg>
